<?xml version="1.0" encoding="UTF-8" standalone="no"?>
<!-- Created with Inkscape (http://www.inkscape.org/) -->

<svg
   width="83mm"
   height="297mm"
   viewBox="0 0 83 297"
   version="1.1"
   id="svg420"
   inkscape:version="1.2 (dc2aedaf03, 2022-05-15)"
   sodipodi:docname="spine.svg"
   xmlns:inkscape="http://www.inkscape.org/namespaces/inkscape"
   xmlns:sodipodi="http://sodipodi.sourceforge.net/DTD/sodipodi-0.dtd"
   xmlns="http://www.w3.org/2000/svg"
   xmlns:svg="http://www.w3.org/2000/svg">
  <sodipodi:namedview
     id="namedview422"
     pagecolor="#505050"
     bordercolor="#eeeeee"
     borderopacity="1"
     inkscape:showpageshadow="0"
     inkscape:pageopacity="0"
     inkscape:pagecheckerboard="0"
     inkscape:deskcolor="#505050"
     inkscape:document-units="mm"
     showgrid="false"
     inkscape:zoom="0.914906"
     inkscape:cx="397.30857"
     inkscape:cy="562.35285"
     inkscape:window-width="2818"
     inkscape:window-height="1561"
     inkscape:window-x="31"
     inkscape:window-y="53"
     inkscape:window-maximized="1"
     inkscape:current-layer="layer1" />
  <defs
     id="defs417" />
  <g
     inkscape:label="Layer 1"
     inkscape:groupmode="layer"
     id="layer1">
    <g
       id="g566"
       transform="translate(0.47150891,-0.07513482)">
      <path
         style="fill:#999999;stroke-width:0.0964686"
         d="M 6.2646655,3.346591 C 12.317355,-1.6548154 22.499428,5.7648624 30.680966,5.6494771 38.807028,5.5348741 49.044819,-2.494262 54.8418,2.6794436 62.187013,9.2349053 51.216091,21.194692 51.2377,30.548101 51.25648,38.667752 60.936006,49.114317 54.478056,54.728644 48.005478,60.355709 36.921673,50.897797 27.964291,50.720048 19.20532,50.546238 7.9000385,59.38413 1.8740773,53.607645 -4.2476274,47.739367 5.7873038,37.782132 6.525704,29.725749 7.3288743,20.962656 -0.89644717,9.263916 6.2646655,3.346591 Z"
         id="path117"
         sodipodi:nodetypes="aaaaaaaaa" />
      <path
         style="fill:#999999;stroke-width:0.0823378"
         d="m 8.3195499,62.617438 c 4.0833931,-5.313851 13.9679071,-1.079706 20.7530061,-2.733789 6.739065,-1.642861 13.727899,-10.272802 19.536292,-7.072227 7.359634,4.055358 0.5094,16.095228 2.308618,23.873184 1.561916,6.751999 11.604752,13.600223 7.300884,19.5012 -4.313579,5.914364 -15.336487,0.156134 -22.822926,1.714086 -7.320587,1.52343 -15.043542,11.029538 -21.157228,7.371058 C 8.0273708,101.55434 14.480231,91.358839 13.560333,84.51528 12.559745,77.071402 3.4883614,68.904427 8.3195499,62.617438 Z"
         id="path117-3"
         sodipodi:nodetypes="aaaaaaaaa" />
      <path
         style="fill:#999999;stroke-width:0.0721619"
         d="m 16.724318,108.77355 c 3.269926,-4.87893 12.154794,-1.73634 17.995095,-3.56771 5.800705,-1.81896 11.423626,-9.762809 16.685003,-7.293021 6.666525,3.129401 1.358174,14.047641 3.372773,20.748051 1.748923,5.81657 10.920472,11.23642 7.491045,16.64132 -3.437208,5.4172 -13.404146,1.0062 -19.863258,2.79327 -6.31606,1.74748 -12.531331,10.49924 -18.08567,7.6463 -5.64261,-2.89831 -0.577207,-12.18096 -1.769789,-18.11402 -1.297205,-6.4535 -9.693945,-13.08178 -5.825199,-18.85419 z"
         id="path117-6"
         sodipodi:nodetypes="aaaaaaaaa" />
      <path
         style="fill:#999999;stroke-width:0.0615919"
         d="m 30.865426,150.82287 c 1.791455,-4.68202 9.782172,-3.75938 14.292551,-6.39532 4.479807,-2.61805 7.645291,-10.29819 12.493126,-9.24528 6.142519,1.33413 3.805206,11.42904 6.757373,16.62014 2.562788,4.50636 11.225706,7.26908 9.401693,12.41909 -1.828131,5.16168 -10.960641,3.38981 -15.994332,6.10673 -4.922188,2.65671 -8.426664,11.12183 -13.591206,9.80593 -5.246603,-1.33682 -2.799955,-10.02468 -4.922074,-14.73389 -2.308264,-5.1223 -10.556655,-9.03798 -8.437131,-14.5774 z"
         id="path117-3-7"
         sodipodi:nodetypes="aaaaaaaaa" />
      <path
         style="fill:#999999;stroke-width:0.0721619"
         d="m 73.519388,251.48681 c -4.922821,3.20346 -11.860604,-3.17493 -17.950971,-3.78346 -6.049087,-0.6044 -14.339266,4.49416 -18.208606,0.15708 -4.902695,-5.49537 4.265878,-13.45302 5.043536,-20.40635 0.675036,-6.03621 -5.632382,-14.62156 -0.356357,-18.24616 5.287996,-3.63283 12.722978,4.33693 19.365093,5.22914 6.495007,0.87244 15.647146,-4.73659 19.635521,0.0678 4.051741,4.88085 -4.251291,11.4296 -5.483729,17.35451 -1.340528,6.44464 3.779851,15.83722 -2.044487,19.62735 z"
         id="path117-6-5"
         sodipodi:nodetypes="aaaaaaaaa" />
      <path
         style="fill:#999999;stroke-width:0.0823681"
         d="m 61.570343,295.18494 c -5.619072,3.65653 -13.538089,-3.62399 -20.489835,-4.31856 -6.904627,-0.68988 -16.367305,5.12977 -20.783883,0.17929 -5.596122,-6.27261 4.869194,-15.35571 5.756844,-23.29249 0.770517,-6.8899 -6.428978,-16.68953 -0.406768,-20.82676 6.035919,-4.14663 14.522433,4.95031 22.103974,5.96872 7.41359,0.99584 17.860143,-5.4065 22.412611,0.0774 4.624787,5.57114 -4.852556,13.04611 -6.259292,19.809 -1.53015,7.35612 4.31444,18.07712 -2.333651,22.40331 z"
         id="path117-6-5-5"
         sodipodi:nodetypes="aaaaaaaaa" />
      <path
         style="fill:#999999;stroke-width:0.0615919"
         d="m 77.02184,207.26184 c -3.48575,3.60281 -10.472717,-0.38284 -15.655788,0.27071 -5.147974,0.64912 -11.074458,6.4699 -15.119695,3.59831 -5.125607,-3.63851 0.987231,-12.00534 0.310078,-17.93865 -0.587871,-5.15069 -7.470659,-11.09259 -3.77123,-15.11303 3.707771,-4.02952 11.411458,1.18542 17.107632,0.66282 5.570002,-0.51104 12.116444,-6.92065 16.349726,-3.68285 4.300548,3.28926 -1.360447,10.31906 -1.257502,15.48332 0.11197,5.61725 6.16086,12.45681 2.036779,16.71937 z"
         id="path117-3-7-3"
         sodipodi:nodetypes="aaaaaaaaa" />
    </g>
  </g>
</svg>
